<svg width="160" height="69" viewBox="0 0 160 69" fill="none" xmlns="http://www.w3.org/2000/svg">
<path d="M0.978027 0.0791016V59.4451C0.978027 63.9675 4.6441 67.6335 9.16643 67.6335H124.524M13.7586 0.0791016V50.1628C13.7586 54.6852 17.4246 58.3512 21.947 58.3512H124.524M27.9592 0.0791016V42.4275C27.9592 46.9499 31.6253 50.616 36.1476 50.616H124.524M37.1896 0.0791016V34.1767C37.1896 38.6991 40.8557 42.3651 45.378 42.3651H129.115C133.637 42.3651 137.304 46.0937 137.304 50.616M47.8401 0.0791016V26.9571C47.8401 31.4794 51.5061 35.1455 56.0285 35.1455H136.216C140.738 35.1455 144.404 38.8116 144.404 43.3339V50.616M58.4905 0.0791016V20.2532C58.4905 24.7756 62.1566 28.4416 66.6789 28.4416H143.316C147.838 28.4416 151.504 32.1077 151.504 36.63V50.616M69.851 0.0791016V13.5494C69.851 18.0717 73.5171 21.7378 78.0394 21.7378H150.416C154.938 21.7378 158.605 25.4038 158.605 29.9262V49.069" stroke="url(#paint0_linear_2_741)" stroke-opacity="0.25"/>
<defs>
<linearGradient id="paint0_linear_2_741" x1="0.978028" y1="54.1227" x2="15.1097" y2="102.567" gradientUnits="userSpaceOnUse">
<stop stop-color="white"/>
<stop offset="1" stop-color="#262626"/>
</linearGradient>
</defs>
</svg>
