<svg width="115" height="68" viewBox="0 0 115 68" fill="none" xmlns="http://www.w3.org/2000/svg">
<path d="M114.337 0.0791016V58.9333C114.337 63.4557 110.67 67.1218 106.148 67.1218H25.2878M105.125 0.0791016V49.7214C105.125 54.2437 101.458 57.9098 96.9363 57.9098H25.2878M94.8892 0.0791016V42.0447C94.8892 46.5671 91.2228 50.2331 86.7008 50.2331H25.2878M88.2361 0.0791016V33.8563C88.2361 38.3787 84.5698 42.0447 80.0477 42.0447H24.2642C19.7422 42.0447 16.0758 45.7108 16.0758 50.2331M80.5595 0.0791016V26.6915C80.5595 31.2138 76.8931 34.8799 72.3711 34.8799H19.1464C14.6244 34.8799 10.958 38.5459 10.958 43.0683V50.2331M72.8829 0.0791016V20.0384C72.8829 24.5607 69.2165 28.2268 64.6945 28.2268H14.0287C9.50665 28.2268 5.84029 31.8928 5.84029 36.4152V50.2331M64.6945 0.0791016V13.3853C64.6945 17.9076 61.0281 21.5737 56.506 21.5737H8.91094C4.38889 21.5737 0.722534 25.2397 0.722534 29.7621V48.6978" stroke="url(#paint0_linear_2_742)" stroke-opacity="0.25"/>
<defs>
<linearGradient id="paint0_linear_2_742" x1="114.337" y1="53.7132" x2="96.2935" y2="98.6349" gradientUnits="userSpaceOnUse">
<stop stop-color="white"/>
<stop offset="1" stop-color="#262626"/>
</linearGradient>
</defs>
</svg>
