<svg width="184" height="373" viewBox="0 0 184 373" fill="none" xmlns="http://www.w3.org/2000/svg">
<path d="M97.7869 0.239258V28.3869C97.7869 32.909 94.1205 36.5754 89.5985 36.5754H51.2153C46.693 36.5754 43.0269 40.2417 43.0269 44.7638V83.6588C43.0269 88.1808 46.693 91.8472 51.2153 91.8472H174.553C179.075 91.8472 182.742 95.5135 182.742 100.036V173.22C182.742 177.742 179.075 181.408 174.553 181.408H8.73797C4.21561 181.408 0.549561 185.074 0.549561 189.596V269.433V321.123C0.549561 325.645 4.21561 329.311 8.73797 329.311H85.5043C90.0263 329.311 93.6927 325.645 93.6927 321.123V251.521C93.6927 246.999 97.359 243.333 101.881 243.333H174.553C179.075 243.333 182.742 246.999 182.742 251.521V372.3" stroke="url(#paint0_linear_2_743)"/>
<defs>
<linearGradient id="paint0_linear_2_743" x1="49.68" y1="39.646" x2="155.618" y2="334.941" gradientUnits="userSpaceOnUse">
<stop stop-color="#8E8E8E"/>
<stop offset="1" stop-color="#141414"/>
</linearGradient>
</defs>
</svg>
