<svg width="83" height="83" viewBox="0 0 83 83" fill="none" xmlns="http://www.w3.org/2000/svg">
<g opacity="0.5">
<path d="M77.1898 11.2389C80.1212 11.2389 82.4976 8.86255 82.4976 5.9312C82.4976 2.99986 80.1212 0.623535 77.1898 0.623535C74.2584 0.623535 71.882 2.99986 71.882 5.9312C71.882 8.86255 74.2584 11.2389 77.1898 11.2389Z" fill="#7B7B7B"/>
<path d="M77.1898 34.9469C80.1212 34.9469 82.4976 32.5706 82.4976 29.6392C82.4976 26.7079 80.1212 24.3315 77.1898 24.3315C74.2584 24.3315 71.882 26.7079 71.882 29.6392C71.882 32.5706 74.2584 34.9469 77.1898 34.9469Z" fill="#757575"/>
<path d="M77.1898 58.6539C80.1212 58.6539 82.4976 56.2776 82.4976 53.3462C82.4976 50.4149 80.1212 48.0386 77.1898 48.0386C74.2584 48.0386 71.882 50.4149 71.882 53.3462C71.882 56.2776 74.2584 58.6539 77.1898 58.6539Z" fill="#797979"/>
<path d="M77.1898 82.3614C80.1212 82.3614 82.4976 79.9851 82.4976 77.0538C82.4976 74.1224 80.1212 71.7461 77.1898 71.7461C74.2584 71.7461 71.882 74.1224 71.882 77.0538C71.882 79.9851 74.2584 82.3614 77.1898 82.3614Z" fill="#646464"/>
<path d="M53.482 11.2389C56.4135 11.2389 58.7898 8.86255 58.7898 5.9312C58.7898 2.99986 56.4135 0.623535 53.482 0.623535C50.5506 0.623535 48.1742 2.99986 48.1742 5.9312C48.1742 8.86255 50.5506 11.2389 53.482 11.2389Z" fill="#ABABAB"/>
<path d="M53.482 34.9469C56.4135 34.9469 58.7898 32.5706 58.7898 29.6392C58.7898 26.7079 56.4135 24.3315 53.482 24.3315C50.5506 24.3315 48.1742 26.7079 48.1742 29.6392C48.1742 32.5706 50.5506 34.9469 53.482 34.9469Z" fill="#AEAEAE"/>
<path d="M53.482 58.6539C56.4135 58.6539 58.7898 56.2776 58.7898 53.3462C58.7898 50.4149 56.4135 48.0386 53.482 48.0386C50.5506 48.0386 48.1742 50.4149 48.1742 53.3462C48.1742 56.2776 50.5506 58.6539 53.482 58.6539Z" fill="#525252"/>
<path d="M53.482 82.3614C56.4135 82.3614 58.7898 79.9851 58.7898 77.0538C58.7898 74.1224 56.4135 71.7461 53.482 71.7461C50.5506 71.7461 48.1742 74.1224 48.1742 77.0538C48.1742 79.9851 50.5506 82.3614 53.482 82.3614Z" fill="#C8C8C8"/>
<path d="M29.7747 11.2389C32.7061 11.2389 35.0825 8.86255 35.0825 5.9312C35.0825 2.99986 32.7061 0.623535 29.7747 0.623535C26.8432 0.623535 24.4669 2.99986 24.4669 5.9312C24.4669 8.86255 26.8432 11.2389 29.7747 11.2389Z" fill="#D7D7D7"/>
<path d="M29.7747 34.9469C32.7061 34.9469 35.0825 32.5706 35.0825 29.6392C35.0825 26.7079 32.7061 24.3315 29.7747 24.3315C26.8432 24.3315 24.4669 26.7079 24.4669 29.6392C24.4669 32.5706 26.8432 34.9469 29.7747 34.9469Z" fill="#B6B6B6"/>
<path d="M29.7747 58.6539C32.7061 58.6539 35.0825 56.2776 35.0825 53.3462C35.0825 50.4149 32.7061 48.0386 29.7747 48.0386C26.8432 48.0386 24.4669 50.4149 24.4669 53.3462C24.4669 56.2776 26.8432 58.6539 29.7747 58.6539Z" fill="#6B6B6B"/>
<path d="M29.7747 82.3614C32.7061 82.3614 35.0825 79.9851 35.0825 77.0538C35.0825 74.1224 32.7061 71.7461 29.7747 71.7461C26.8432 71.7461 24.4669 74.1224 24.4669 77.0538C24.4669 79.9851 26.8432 82.3614 29.7747 82.3614Z" fill="#646464"/>
<path d="M6.06727 11.2389C8.99869 11.2389 11.3751 8.86255 11.3751 5.9312C11.3751 2.99986 8.99869 0.623535 6.06727 0.623535C3.13584 0.623535 0.75946 2.99986 0.75946 5.9312C0.75946 8.86255 3.13584 11.2389 6.06727 11.2389Z" fill="#C7C7C7"/>
<path d="M6.06727 34.9469C8.99869 34.9469 11.3751 32.5706 11.3751 29.6392C11.3751 26.7079 8.99869 24.3315 6.06727 24.3315C3.13584 24.3315 0.75946 26.7079 0.75946 29.6392C0.75946 32.5706 3.13584 34.9469 6.06727 34.9469Z" fill="#D1D1D1"/>
<path d="M6.06727 58.6539C8.99869 58.6539 11.3751 56.2776 11.3751 53.3462C11.3751 50.4149 8.99869 48.0386 6.06727 48.0386C3.13584 48.0386 0.75946 50.4149 0.75946 53.3462C0.75946 56.2776 3.13584 58.6539 6.06727 58.6539Z" fill="#979797"/>
<path d="M6.06727 82.3614C8.99869 82.3614 11.3751 79.9851 11.3751 77.0538C11.3751 74.1224 8.99869 71.7461 6.06727 71.7461C3.13584 71.7461 0.75946 74.1224 0.75946 77.0538C0.75946 79.9851 3.13584 82.3614 6.06727 82.3614Z" fill="#5A5A5A"/>
</g>
</svg>
