<svg width="619" height="134" viewBox="0 0 619 134" fill="none" xmlns="http://www.w3.org/2000/svg">
<path d="M618 67.0002C618 76.0431 609.461 84.6883 593.898 92.5835C578.333 100.479 555.776 107.606 527.85 113.597C472.002 125.58 394.804 133 309.5 133C224.196 133 146.998 125.58 91.1503 113.597C63.2246 107.606 40.6679 100.479 25.1022 92.5835C9.53905 84.6883 1 76.0431 1 67.0002C1 57.9567 9.53905 49.3114 25.1022 41.4167C40.6679 33.5205 63.2246 26.3943 91.1503 20.4025C146.998 8.41948 224.196 1 309.5 1C394.804 1 472.002 8.41948 527.85 20.4025C555.776 26.3943 578.333 33.5205 593.898 41.4167C609.461 49.3114 618 57.9567 618 67.0002Z" stroke="white" stroke-opacity="0.05" stroke-width="0.995833"/>
</svg>
